<svg width="100" height="100" viewBox="0 0 100 100" fill="none" xmlns="http://www.w3.org/2000/svg">
<circle cx="50" cy="50" r="49.5" fill="white" stroke="#BABFC5"/>
<rect x="25" y="25" width="50" height="50" rx="25" fill="#82868C"/>
<path d="M50 55.6896C51.9996 55.6896 53.6207 54.0686 53.6207 52.0689C53.6207 50.0693 51.9996 48.4482 50 48.4482C48.0003 48.4482 46.3793 50.0693 46.3793 52.0689C46.3793 54.0686 48.0003 55.6896 50 55.6896Z" fill="white"/>
<path d="M60.8621 43.2763H57.47C57.2528 43.2764 57.0411 43.208 56.8649 43.081C56.6887 42.954 56.5569 42.7748 56.4883 42.5687L56.1614 41.587C56.0239 41.175 55.7603 40.8168 55.4079 40.563C55.0555 40.3092 54.6322 40.1727 54.1979 40.1729H45.801C45.3668 40.173 44.9436 40.3097 44.5914 40.5637C44.2392 40.8177 43.9758 41.176 43.8386 41.588L43.5117 42.5687C43.4431 42.7748 43.3113 42.954 43.1351 43.081C42.9589 43.208 42.7472 43.2764 42.53 43.2763H39.1379C38.5892 43.2763 38.063 43.4943 37.675 43.8823C37.2869 44.2703 37.069 44.7965 37.069 45.3453V57.7591C37.069 58.3078 37.2869 58.834 37.675 59.222C38.063 59.61 38.5892 59.828 39.1379 59.828H60.8621C61.4108 59.828 61.937 59.61 62.3251 59.222C62.7131 58.834 62.931 58.3078 62.931 57.7591V45.3453C62.931 44.7965 62.7131 44.2703 62.3251 43.8823C61.937 43.4943 61.4108 43.2763 60.8621 43.2763ZM50 57.7591C46.8635 57.7591 44.3103 55.206 44.3103 52.0694C44.3103 48.9329 46.8635 46.3797 50 46.3797C53.1366 46.3797 55.6897 48.9329 55.6897 52.0694C55.6897 55.206 53.1366 57.7591 50 57.7591ZM56.2069 47.4142C55.9325 47.4142 55.6694 47.3052 55.4754 47.1112C55.2814 46.9172 55.1724 46.6541 55.1724 46.3797C55.1724 46.1054 55.2814 45.8423 55.4754 45.6483C55.6694 45.4543 55.9325 45.3453 56.2069 45.3453C56.4813 45.3453 56.7444 45.4543 56.9384 45.6483C57.1324 45.8423 57.2414 46.1054 57.2414 46.3797C57.2414 46.6541 57.1324 46.9172 56.9384 47.1112C56.7444 47.3052 56.4813 47.4142 56.2069 47.4142Z" fill="white"/>
<path d="M40.6896 42.2415H38.6206C38.4835 42.2415 38.3519 42.187 38.2549 42.09C38.1579 41.993 38.1034 41.8615 38.1034 41.7243C38.1034 41.5871 38.1579 41.4555 38.2549 41.3585C38.3519 41.2615 38.4835 41.207 38.6206 41.207H40.6896C40.8268 41.207 40.9583 41.2615 41.0553 41.3585C41.1523 41.4555 41.2068 41.5871 41.2068 41.7243C41.2068 41.8615 41.1523 41.993 41.0553 42.09C40.9583 42.187 40.8268 42.2415 40.6896 42.2415Z" fill="white"/>
</svg>
