<svg width="24" height="24" viewBox="0 0 24 24" fill="none" xmlns="http://www.w3.org/2000/svg">
<path d="M12.2227 10C12.1214 9.98985 11.9997 9.98985 11.8882 10C9.47609 9.91883 7.56055 7.94025 7.56055 5.50507C7.56055 3.01917 9.5673 1 12.0605 1C14.5437 1 16.5605 3.01917 16.5605 5.50507C16.5504 7.94025 14.6349 9.91883 12.2227 10Z" stroke="#666466" stroke-width="1.5" stroke-linecap="round" stroke-linejoin="round"/>
<path d="M12.2934 21.1802C10.3954 21.1802 8.50776 20.7005 7.0686 19.741C4.54484 18.0516 4.54484 15.2984 7.0686 13.6193C9.9365 11.7005 14.6399 11.7005 17.5078 13.6193" stroke="#666466" stroke-width="1.5" stroke-linecap="round" stroke-linejoin="round"/>
<path d="M17.5 20.25C18.1904 20.25 18.75 19.6904 18.75 19C18.75 18.3096 18.1904 17.75 17.5 17.75C16.8096 17.75 16.25 18.3096 16.25 19C16.25 19.6904 16.8096 20.25 17.5 20.25Z" stroke="#666466" stroke-width="1.5" stroke-miterlimit="10" stroke-linecap="round" stroke-linejoin="round"/>
<path d="M13.334 19.3664V18.6331C13.334 18.1998 13.6882 17.8414 14.1257 17.8414C14.8798 17.8414 15.1882 17.3081 14.809 16.6539C14.5923 16.2789 14.7215 15.7914 15.1007 15.5748L15.8215 15.1623C16.1507 14.9664 16.5757 15.0831 16.7715 15.4123L16.8173 15.4914C17.1923 16.1456 17.809 16.1456 18.1882 15.4914L18.234 15.4123C18.4298 15.0831 18.8548 14.9664 19.184 15.1623L19.9048 15.5748C20.284 15.7914 20.4132 16.2789 20.1965 16.6539C19.8173 17.3081 20.1257 17.8414 20.8798 17.8414C21.3132 17.8414 21.6715 18.1956 21.6715 18.6331V19.3664C21.6715 19.7998 21.3173 20.1581 20.8798 20.1581C20.1257 20.1581 19.8173 20.6914 20.1965 21.3456C20.4132 21.7248 20.284 22.2081 19.9048 22.4248L19.184 22.8373C18.8548 23.0331 18.4298 22.9164 18.234 22.5873L18.1882 22.5081C17.8132 21.8539 17.1965 21.8539 16.8173 22.5081L16.7715 22.5873C16.5757 22.9164 16.1507 23.0331 15.8215 22.8373L15.1007 22.4248C14.7215 22.2081 14.5923 21.7206 14.809 21.3456C15.1882 20.6914 14.8798 20.1581 14.1257 20.1581C13.6882 20.1581 13.334 19.7998 13.334 19.3664Z" stroke="#666466" stroke-width="1.5" stroke-miterlimit="10" stroke-linecap="round" stroke-linejoin="round"/>
</svg>
