<svg width="24" height="24" viewBox="0 0 24 24" fill="none" xmlns="http://www.w3.org/2000/svg">
<path d="M11.5 1C9.01789 1 7 3.02002 7 5.50474C7 7.94204 8.90421 9.91465 11.3863 10C11.4621 9.99052 11.5379 9.99052 11.5947 10C11.6137 10 11.6232 10 11.6421 10C11.6516 10 11.6516 10 11.6611 10C14.0863 9.91465 15.9905 7.94204 16 5.50474C16 3.02002 13.9821 1 11.5 1Z" fill="#7C3367"/>
<path d="M17.7727 12.5852C14.6023 10.4716 9.43182 10.4716 6.23864 12.5852C4.79545 13.5511 4 14.858 4 16.2557C4 17.6534 4.79545 18.9489 6.22727 19.9034C7.81818 20.9716 9.90909 21.5057 12 21.5057C14.0909 21.5057 16.1818 20.9716 17.7727 19.9034C19.2045 18.9375 20 17.642 20 16.233C19.9886 14.8352 19.2045 13.5398 17.7727 12.5852Z" fill="#7C3367"/>
<path d="M19 20.25C19.6904 20.25 20.25 19.6904 20.25 19C20.25 18.3096 19.6904 17.75 19 17.75C18.3096 17.75 17.75 18.3096 17.75 19C17.75 19.6904 18.3096 20.25 19 20.25Z" fill="white" stroke="white" stroke-width="1.5" stroke-miterlimit="10" stroke-linecap="round" stroke-linejoin="round"/>
<path d="M14.834 19.3664V18.6331C14.834 18.1998 15.1882 17.8414 15.6257 17.8414C16.3798 17.8414 16.6882 17.3081 16.309 16.6539C16.0923 16.2789 16.2215 15.7914 16.6007 15.5748L17.3215 15.1623C17.6507 14.9664 18.0757 15.0831 18.2715 15.4123L18.3173 15.4914C18.6923 16.1456 19.309 16.1456 19.6882 15.4914L19.734 15.4123C19.9298 15.0831 20.3548 14.9664 20.684 15.1623L21.4048 15.5748C21.784 15.7914 21.9132 16.2789 21.6965 16.6539C21.3173 17.3081 21.6257 17.8414 22.3798 17.8414C22.8132 17.8414 23.1715 18.1956 23.1715 18.6331V19.3664C23.1715 19.7998 22.8173 20.1581 22.3798 20.1581C21.6257 20.1581 21.3173 20.6914 21.6965 21.3456C21.9132 21.7248 21.784 22.2081 21.4048 22.4248L20.684 22.8373C20.3548 23.0331 19.9298 22.9164 19.734 22.5873L19.6882 22.5081C19.3132 21.8539 18.6965 21.8539 18.3173 22.5081L18.2715 22.5873C18.0757 22.9164 17.6507 23.0331 17.3215 22.8373L16.6007 22.4248C16.2215 22.2081 16.0923 21.7206 16.309 21.3456C16.6882 20.6914 16.3798 20.1581 15.6257 20.1581C15.1882 20.1581 14.834 19.7998 14.834 19.3664Z" fill="white" stroke="white" stroke-width="1.5" stroke-miterlimit="10" stroke-linecap="round" stroke-linejoin="round"/>
<path d="M19.25 20.5C19.9404 20.5 20.5 19.9404 20.5 19.25C20.5 18.5596 19.9404 18 19.25 18C18.5596 18 18 18.5596 18 19.25C18 19.9404 18.5596 20.5 19.25 20.5Z" stroke="white" stroke-width="1.5" stroke-miterlimit="10" stroke-linecap="round" stroke-linejoin="round"/>
<path d="M22.3757 17.8419C21.6215 17.8419 21.3132 17.3086 21.6882 16.6544C21.9048 16.2753 21.7757 15.7919 21.3965 15.5753L20.6757 15.1628C20.3465 14.9669 19.9215 15.0836 19.7257 15.4128L19.6798 15.4919C19.3048 16.1461 18.6882 16.1461 18.309 15.4919L18.2632 15.4128C18.2182 15.334 18.1581 15.265 18.0863 15.2097C18.0144 15.1544 17.9323 15.1139 17.8447 15.0906C17.757 15.0674 17.6656 15.0618 17.5758 15.0741C17.486 15.0865 17.3996 15.1167 17.3215 15.1628L16.6007 15.5753C16.2215 15.7919 16.0923 16.2794 16.309 16.6586C16.6882 17.3086 16.3798 17.8419 15.6257 17.8419C15.1923 17.8419 14.834 18.1961 14.834 18.6336V19.3669C14.834 19.8003 15.1882 20.1586 15.6257 20.1586C16.3798 20.1586 16.6882 20.6919 16.309 21.3461C16.0923 21.7253 16.2215 22.2086 16.6007 22.4253L17.3215 22.8378C17.6507 23.0336 18.0757 22.9169 18.2715 22.5878L18.3173 22.5086C18.6923 21.8544 19.309 21.8544 19.6882 22.5086L19.734 22.5878C19.9298 22.9169 20.3548 23.0336 20.684 22.8378L21.4048 22.4253C21.784 22.2086 21.9132 21.7211 21.6965 21.3461C21.3173 20.6919 21.6257 20.1586 22.3798 20.1586C22.8132 20.1586 23.1715 19.8044 23.1715 19.3669V18.6336C23.1693 18.4236 23.0846 18.2229 22.9357 18.0747C22.7868 17.9266 22.5857 17.843 22.3757 17.8419ZM19.0007 20.3544C18.2548 20.3544 17.6465 19.7461 17.6465 19.0003C17.6465 18.2544 18.2548 17.6461 19.0007 17.6461C19.7465 17.6461 20.3548 18.2544 20.3548 19.0003C20.3548 19.7461 19.7465 20.3544 19.0007 20.3544Z" fill="#7C3367"/>
</svg>
