<svg width="12" height="12" viewBox="0 0 12 12" fill="none" xmlns="http://www.w3.org/2000/svg">
<path d="M5.24984 10.8666L0.849837 6.46656C0.783171 6.39989 0.735837 6.32767 0.707837 6.24989C0.680282 6.17211 0.666504 6.08878 0.666504 5.99989C0.666504 5.911 0.680282 5.82767 0.707837 5.74989C0.735837 5.67211 0.783171 5.59989 0.849837 5.53323L5.24984 1.13323C5.37206 1.011 5.52473 0.947003 5.70784 0.941226C5.89139 0.935892 6.04984 0.999892 6.18317 1.13323C6.3165 1.25545 6.38606 1.40811 6.39184 1.59123C6.39717 1.77478 6.33317 1.93323 6.19984 2.06656L2.93317 5.33323H10.3832C10.5721 5.33323 10.7305 5.397 10.8585 5.52456C10.9861 5.65256 11.0498 5.811 11.0498 5.99989C11.0498 6.18878 10.9861 6.347 10.8585 6.47456C10.7305 6.60256 10.5721 6.66656 10.3832 6.66656H2.93317L6.19984 9.93323C6.32206 10.0554 6.38606 10.211 6.39184 10.3999C6.39717 10.5888 6.33317 10.7443 6.19984 10.8666C6.07762 10.9999 5.92206 11.0666 5.73317 11.0666C5.54428 11.0666 5.38317 10.9999 5.24984 10.8666Z" fill="#3B4758"/>
</svg>
