<svg width="32" height="32" viewBox="0 0 32 32" fill="none" xmlns="http://www.w3.org/2000/svg">
<path d="M2.66699 29.3335H29.3337" stroke="#666466" stroke-width="1.5" stroke-linecap="round" stroke-linejoin="round"/>
<path d="M4.14648 29.3335V17.3335C4.14648 15.1202 6.13315 13.3335 8.58648 13.3335H23.3998C25.8532 13.3335 27.8398 15.1202 27.8398 17.3335V29.3335" stroke="#666466" stroke-width="1.5" stroke-linecap="round" stroke-linejoin="round"/>
<path d="M7.41309 13.3332V9.55984C7.41309 7.95984 8.85309 6.6665 10.6398 6.6665H21.3731C23.1464 6.6665 24.5864 7.95984 24.5864 9.55984V13.3332" stroke="#666466" stroke-width="1.5" stroke-linecap="round" stroke-linejoin="round"/>
<path d="M4.70703 18.6401L5.20036 18.6535C6.18703 18.6668 6.9737 19.4668 6.9737 20.4535V20.8935C6.9737 21.8801 7.7737 22.6935 8.7737 22.6935C9.76036 22.6935 10.5737 21.8935 10.5737 20.8935V20.4801C10.5737 19.4935 11.3737 18.6801 12.3737 18.6801C13.3604 18.6801 14.1737 19.4801 14.1737 20.4801V20.8935C14.1737 21.8801 14.9737 22.6935 15.9737 22.6935C16.9604 22.6935 17.7737 21.8935 17.7737 20.8935V20.4801C17.7737 19.4935 18.5737 18.6801 19.5737 18.6801C20.5604 18.6801 21.3737 19.4801 21.3737 20.4801V20.8935C21.3737 21.8801 22.1737 22.6935 23.1737 22.6935C24.1604 22.6935 24.9737 21.8935 24.9737 20.8935V20.4801C24.9737 19.4935 25.7737 18.6801 26.7737 18.6801H27.3737" stroke="#666466" stroke-width="1.5" stroke-linecap="round" stroke-linejoin="round"/>
<path d="M10.667 6.66667V4" stroke="#666466" stroke-width="1.5" stroke-linecap="round" stroke-linejoin="round"/>
<path d="M21.333 6.66667V4" stroke="#666466" stroke-width="1.5" stroke-linecap="round" stroke-linejoin="round"/>
<path d="M16 6.6665V2.6665" stroke="#666466" stroke-width="1.5" stroke-linecap="round" stroke-linejoin="round"/>
</svg>
