<svg width="32" height="32" viewBox="0 0 32 32" fill="none" xmlns="http://www.w3.org/2000/svg">
<path d="M17.334 14.8667H9.33398" stroke="#292D32" stroke-width="1.5" stroke-linecap="round" stroke-linejoin="round"/>
<path d="M2.66602 14.8666V8.70662C2.66602 5.98662 4.86602 3.78662 7.58602 3.78662H15.0793C17.7993 3.78662 19.9993 5.47995 19.9993 8.19995" stroke="#292D32" stroke-width="1.5" stroke-linecap="round" stroke-linejoin="round"/>
<path d="M23.306 16.2666C22.6393 16.9066 22.3194 17.8932 22.586 18.9066C22.9194 20.1466 24.146 20.9333 25.426 20.9333H26.666V22.8666C26.666 25.8133 24.2793 28.2 21.3327 28.2H7.99935C5.05268 28.2 2.66602 25.8133 2.66602 22.8666V13.5333C2.66602 10.5866 5.05268 8.19995 7.99935 8.19995H21.3327C24.266 8.19995 26.666 10.6 26.666 13.5333V15.4666H25.226C24.4793 15.4666 23.7993 15.7599 23.306 16.2666Z" stroke="#292D32" stroke-width="1.5" stroke-linecap="round" stroke-linejoin="round"/>
<path d="M29.333 16.8266V19.5732C29.333 20.3199 28.7196 20.9333 27.9596 20.9333H25.3863C23.9463 20.9333 22.6263 19.8799 22.5063 18.4399C22.4263 17.5999 22.7463 16.8133 23.3063 16.2666C23.7996 15.7599 24.4796 15.4666 25.2263 15.4666H27.9596C28.7196 15.4666 29.333 16.0799 29.333 16.8266Z" stroke="#292D32" stroke-width="1.5" stroke-linecap="round" stroke-linejoin="round"/>
</svg>
