<svg width="13" height="12" viewBox="0 0 13 12" fill="none" xmlns="http://www.w3.org/2000/svg">
<rect x="0.714294" width="12" height="12" rx="6" fill="#FF9900"/>
<path fill-rule="evenodd" clip-rule="evenodd" d="M6.71428 9.20005C7.56297 9.20005 8.37691 8.86291 8.97702 8.26279C9.57714 7.66267 9.91428 6.84874 9.91428 6.00005C9.91428 5.15136 9.57714 4.33742 8.97702 3.73731C8.37691 3.13719 7.56297 2.80005 6.71428 2.80005C5.86559 2.80005 5.05166 3.13719 4.45154 3.73731C3.85142 4.33742 3.51428 5.15136 3.51428 6.00005C3.51428 6.84874 3.85142 7.66267 4.45154 8.26279C5.05166 8.86291 5.86559 9.20005 6.71428 9.20005ZM7.11428 4.40005C7.11428 4.29396 7.07214 4.19222 6.99712 4.11721C6.92211 4.04219 6.82037 4.00005 6.71428 4.00005C6.6082 4.00005 6.50645 4.04219 6.43144 4.11721C6.35642 4.19222 6.31428 4.29396 6.31428 4.40005V6.00005C6.3143 6.10613 6.35646 6.20785 6.43148 6.28285L7.56268 7.41445C7.59985 7.45161 7.64397 7.48109 7.69252 7.50121C7.74108 7.52132 7.79312 7.53167 7.84568 7.53167C7.89824 7.53167 7.95028 7.52132 7.99884 7.50121C8.0474 7.48109 8.09152 7.45161 8.12868 7.41445C8.16585 7.37728 8.19533 7.33316 8.21544 7.28461C8.23555 7.23605 8.2459 7.18401 8.2459 7.13145C8.2459 7.07889 8.23555 7.02685 8.21544 6.97829C8.19533 6.92973 8.16585 6.88561 8.12868 6.84845L7.11428 5.83445V4.40005Z" fill="#FFF8DD"/>
</svg>
