<svg width="12" height="12" viewBox="0 0 12 12" fill="none" xmlns="http://www.w3.org/2000/svg">
<rect width="12" height="12" rx="6" fill="#50CD89"/>
<g clip-path="url(#clip0_4370_19238)">
<path fill-rule="evenodd" clip-rule="evenodd" d="M6.00005 9.20005C6.84874 9.20005 7.66267 8.86291 8.26279 8.26279C8.86291 7.66267 9.20005 6.84874 9.20005 6.00005C9.20005 5.15136 8.86291 4.33742 8.26279 3.73731C7.66267 3.13719 6.84874 2.80005 6.00005 2.80005C5.15136 2.80005 4.33742 3.13719 3.73731 3.73731C3.13719 4.33742 2.80005 5.15136 2.80005 6.00005C2.80005 6.84874 3.13719 7.66267 3.73731 8.26279C4.33742 8.86291 5.15136 9.20005 6.00005 9.20005ZM6.40005 4.40005C6.40005 4.29396 6.35791 4.19222 6.28289 4.11721C6.20788 4.04219 6.10614 4.00005 6.00005 4.00005C5.89396 4.00005 5.79222 4.04219 5.71721 4.11721C5.64219 4.19222 5.60005 4.29396 5.60005 4.40005V6.00005C5.60007 6.10613 5.64223 6.20785 5.71725 6.28285L6.84845 7.41445C6.88561 7.45161 6.92973 7.48109 6.97829 7.50121C7.02685 7.52132 7.07889 7.53167 7.13145 7.53167C7.18401 7.53167 7.23605 7.52132 7.28461 7.50121C7.33316 7.48109 7.37728 7.45161 7.41445 7.41445C7.45161 7.37728 7.48109 7.33316 7.50121 7.28461C7.52132 7.23605 7.53167 7.18401 7.53167 7.13145C7.53167 7.07889 7.52132 7.02685 7.50121 6.97829C7.48109 6.92973 7.45161 6.88561 7.41445 6.84845L6.40005 5.83445V4.40005Z" fill="#E8FFF3"/>
</g>
<defs>
<clipPath id="clip0_4370_19238">
<rect width="8" height="8" fill="white" transform="translate(2 2)"/>
</clipPath>
</defs>
</svg>
