<svg width="13" height="12" viewBox="0 0 13 12" fill="none" xmlns="http://www.w3.org/2000/svg">
<rect x="0.428589" width="12" height="12" rx="6" fill="#965C85"/>
<path fill-rule="evenodd" clip-rule="evenodd" d="M6.42858 9.20005C7.27727 9.20005 8.0912 8.86291 8.69132 8.26279C9.29143 7.66267 9.62858 6.84874 9.62858 6.00005C9.62858 5.15136 9.29143 4.33742 8.69132 3.73731C8.0912 3.13719 7.27727 2.80005 6.42858 2.80005C5.57988 2.80005 4.76595 3.13719 4.16583 3.73731C3.56572 4.33742 3.22858 5.15136 3.22858 6.00005C3.22858 6.84874 3.56572 7.66267 4.16583 8.26279C4.76595 8.86291 5.57988 9.20005 6.42858 9.20005ZM6.82858 4.40005C6.82858 4.29396 6.78643 4.19222 6.71142 4.11721C6.6364 4.04219 6.53466 4.00005 6.42858 4.00005C6.32249 4.00005 6.22075 4.04219 6.14573 4.11721C6.07072 4.19222 6.02858 4.29396 6.02858 4.40005V6.00005C6.0286 6.10613 6.07076 6.20785 6.14578 6.28285L7.27698 7.41445C7.31414 7.45161 7.35826 7.48109 7.40682 7.50121C7.45538 7.52132 7.50742 7.53167 7.55998 7.53167C7.61253 7.53167 7.66458 7.52132 7.71313 7.50121C7.76169 7.48109 7.80581 7.45161 7.84298 7.41445C7.88014 7.37728 7.90962 7.33316 7.92973 7.28461C7.94985 7.23605 7.9602 7.18401 7.9602 7.13145C7.9602 7.07889 7.94985 7.02685 7.92973 6.97829C7.90962 6.92973 7.88014 6.88561 7.84298 6.84845L6.82858 5.83445V4.40005Z" fill="#E5D6E1"/>
</svg>
