<svg width="13" height="12" viewBox="0 0 13 12" fill="none" xmlns="http://www.w3.org/2000/svg">
<rect x="0.285706" width="12" height="12" rx="6" fill="#009EF7"/>
<path fill-rule="evenodd" clip-rule="evenodd" d="M6.28569 9.20005C7.13439 9.20005 7.94832 8.86291 8.54843 8.26279C9.14855 7.66267 9.48569 6.84874 9.48569 6.00005C9.48569 5.15136 9.14855 4.33742 8.54843 3.73731C7.94832 3.13719 7.13439 2.80005 6.28569 2.80005C5.437 2.80005 4.62307 3.13719 4.02295 3.73731C3.42284 4.33742 3.08569 5.15136 3.08569 6.00005C3.08569 6.84874 3.42284 7.66267 4.02295 8.26279C4.62307 8.86291 5.437 9.20005 6.28569 9.20005ZM6.68569 4.40005C6.68569 4.29396 6.64355 4.19222 6.56854 4.11721C6.49352 4.04219 6.39178 4.00005 6.28569 4.00005C6.17961 4.00005 6.07787 4.04219 6.00285 4.11721C5.92784 4.19222 5.88569 4.29396 5.88569 4.40005V6.00005C5.88572 6.10613 5.92787 6.20785 6.00289 6.28285L7.13409 7.41445C7.17126 7.45161 7.21538 7.48109 7.26393 7.50121C7.31249 7.52132 7.36453 7.53167 7.41709 7.53167C7.46965 7.53167 7.52169 7.52132 7.57025 7.50121C7.61881 7.48109 7.66293 7.45161 7.70009 7.41445C7.73726 7.37728 7.76674 7.33316 7.78685 7.28461C7.80696 7.23605 7.81732 7.18401 7.81732 7.13145C7.81732 7.07889 7.80696 7.02685 7.78685 6.97829C7.76674 6.92973 7.73726 6.88561 7.70009 6.84845L6.68569 5.83445V4.40005Z" fill="#F1FAFF"/>
</svg>
