<svg width="12" height="4" viewBox="0 0 12 4" fill="none" xmlns="http://www.w3.org/2000/svg">
<path fill-rule="evenodd" clip-rule="evenodd" d="M0 1.99999C0 1.26399 0.597333 0.666656 1.33333 0.666656C2.06933 0.666656 2.66667 1.26399 2.66667 1.99999C2.66667 2.73599 2.06933 3.33332 1.33333 3.33332C0.597333 3.33332 0 2.73599 0 1.99999ZM6 0.666656C5.264 0.666656 4.66667 1.26399 4.66667 1.99999C4.66667 2.73599 5.264 3.33332 6 3.33332C6.736 3.33332 7.33333 2.73599 7.33333 1.99999C7.33333 1.26399 6.736 0.666656 6 0.666656ZM10.6667 0.666656C9.93067 0.666656 9.33333 1.26399 9.33333 1.99999C9.33333 2.73599 9.93067 3.33332 10.6667 3.33332C11.4027 3.33332 12 2.73599 12 1.99999C12 1.26399 11.4027 0.666656 10.6667 0.666656Z" fill="#0C050A"/>
</svg>
