<svg width="48" height="48" viewBox="0 0 48 48" fill="none" xmlns="http://www.w3.org/2000/svg">
<path opacity="0.4" d="M34.1097 47.3337H13.8876C5.97926 47.3337 0.666504 41.7871 0.666504 33.5303V14.4727C0.666504 6.21592 5.97926 0.666992 13.8876 0.666992H34.1121C42.0204 0.666992 47.3332 6.21592 47.3332 14.4727V33.5303C47.3332 41.7871 42.0204 47.3337 34.1097 47.3337Z" fill="#319DFF"/>
<path fill-rule="evenodd" clip-rule="evenodd" d="M22.2382 16.2421C22.2382 19.4387 19.6366 22.0404 16.4399 22.0404C13.2409 22.0404 10.6416 19.4387 10.6416 16.2421C10.6416 13.0454 13.2409 10.4414 16.4399 10.4414C19.6366 10.4414 22.2382 13.0454 22.2382 16.2421ZM41.2675 28.8715C41.8112 29.3988 42.2008 30.0008 42.4575 30.6425C43.2345 32.5838 42.8308 34.9171 42.0002 36.8398C41.0155 39.1288 39.1302 40.8578 36.7548 41.6138C35.7002 41.9521 34.5942 42.0968 33.4905 42.0968H13.9348C11.9888 42.0968 10.2668 41.6441 8.85517 40.7948C7.97083 40.2628 7.8145 39.0378 8.47017 38.2398C9.56683 36.9098 10.6495 35.5751 11.7415 34.2288C13.8228 31.6528 15.2252 30.9061 16.7838 31.5618C17.4162 31.8325 18.0508 32.2408 18.7042 32.6701C20.4448 33.8228 22.8645 35.4048 26.0518 33.6875C28.2305 32.4962 29.4952 30.4576 30.596 28.6832L30.6182 28.6475C30.6922 28.5287 30.7657 28.41 30.8389 28.2917C31.2132 27.6869 31.5819 27.0912 31.9995 26.5428C32.5175 25.8638 34.4402 23.7405 36.9252 25.2525C38.5095 26.2045 39.8418 27.4925 41.2675 28.8715Z" fill="#319DFF"/>
</svg>
