<svg width="16" height="16" viewBox="0 0 16 16" fill="none" xmlns="http://www.w3.org/2000/svg">
<g clip-path="url(#clip0_3307_111725)">
<path fill-rule="evenodd" clip-rule="evenodd" d="M8.0001 2.06628C4.72321 2.06628 2.06676 4.72272 2.06676 7.99961C2.06676 11.2765 4.72321 13.9329 8.0001 13.9329C11.277 13.9329 13.9334 11.2765 13.9334 7.99961C13.9334 4.72272 11.277 2.06628 8.0001 2.06628ZM0.600098 7.99961C0.600098 3.9127 3.91319 0.599609 8.0001 0.599609C12.087 0.599609 15.4001 3.9127 15.4001 7.99961C15.4001 12.0865 12.087 15.3996 8.0001 15.3996C3.91319 15.3996 0.600098 12.0865 0.600098 7.99961Z" fill="#7C3367"/>
<path fill-rule="evenodd" clip-rule="evenodd" d="M8.16076 5.41557C7.86593 5.365 7.56271 5.4204 7.30482 5.57197C7.04693 5.72354 6.85099 5.96148 6.75173 6.24367C6.61733 6.62573 6.19866 6.8265 5.8166 6.6921C5.43454 6.5577 5.23377 6.13902 5.36817 5.75696C5.58238 5.14804 6.00518 4.63457 6.56168 4.30751C7.11819 3.98044 7.7725 3.86089 8.40871 3.97001C9.04492 4.07914 9.62198 4.40991 10.0377 4.90373C10.4533 5.39747 10.6808 6.02234 10.6799 6.66772C10.6796 7.72327 9.89756 8.41438 9.3534 8.77715C9.05893 8.97346 8.76969 9.11756 8.55695 9.21211C8.44954 9.25985 8.35901 9.29611 8.29362 9.32103C8.26086 9.3335 8.23423 9.3432 8.21475 9.35013L8.19095 9.35846L8.18327 9.36109L8.18052 9.36201L8.17943 9.36238C8.17921 9.36245 8.17852 9.36269 7.94662 8.66698L8.17852 9.36269C7.79429 9.49076 7.37899 9.28311 7.25091 8.89888C7.12299 8.5151 7.33002 8.1003 7.7134 7.97172C7.71298 7.97187 7.71354 7.97168 7.7134 7.97172L7.7234 7.96821C7.73322 7.96472 7.74956 7.9588 7.77149 7.95044C7.81547 7.93369 7.88119 7.90745 7.96128 7.87186C8.12354 7.79974 8.3343 7.69384 8.53984 7.55681C8.99554 7.25301 9.21328 6.94435 9.21328 6.66698L9.21328 6.66589C9.21373 6.36676 9.10829 6.07712 8.91565 5.84827C8.72301 5.61942 8.45559 5.46614 8.16076 5.41557ZM7.7134 7.97172C7.71298 7.97187 7.71354 7.97168 7.7134 7.97172V7.97172ZM10.6799 6.66772C10.6799 6.6676 10.6799 6.66784 10.6799 6.66772L9.94662 6.66698H10.6799C10.6799 6.66723 10.6799 6.66747 10.6799 6.66772Z" fill="#7C3367"/>
<path fill-rule="evenodd" clip-rule="evenodd" d="M7.2666 11.3329C7.2666 10.9279 7.59493 10.5996 7.99993 10.5996H8.0066C8.41161 10.5996 8.73993 10.9279 8.73993 11.3329C8.73993 11.738 8.41161 12.0663 8.0066 12.0663H7.99993C7.59493 12.0663 7.2666 11.738 7.2666 11.3329Z" fill="#7C3367"/>
</g>
<defs>
<clipPath id="clip0_3307_111725">
<rect width="16" height="16" fill="white"/>
</clipPath>
</defs>
</svg>
