<svg width="141" height="140" viewBox="0 0 141 140" fill="none" xmlns="http://www.w3.org/2000/svg">
<rect x="1" y="0.5" width="139" height="139" rx="69.5" fill="#F4F5FA"/>
<path d="M63 45C56.45 45 51.125 50.325 51.125 56.875C51.125 63.3 56.15 68.5 62.7 68.725C62.9 68.7 63.1 68.7 63.25 68.725C63.3 68.725 63.325 68.725 63.375 68.725C63.4 68.725 63.4 68.725 63.425 68.725C69.825 68.5 74.85 63.3 74.875 56.875C74.875 50.325 69.55 45 63 45Z" fill="#CDC9CD"/>
<path d="M75.6999 75.375C68.7249 70.725 57.3499 70.725 50.3249 75.375C47.1499 77.5 45.3999 80.375 45.3999 83.45C45.3999 86.525 47.1499 89.375 50.2999 91.475C53.7999 93.825 58.3999 95 62.9999 95C67.5999 95 72.1999 93.825 75.6999 91.475C78.8499 89.35 80.5999 86.5 80.5999 83.4C80.5749 80.325 78.8499 77.475 75.6999 75.375Z" fill="#CDC9CD"/>
<path d="M90.4749 58.35C90.8749 63.2 87.4249 67.45 82.6499 68.025C82.6249 68.025 82.6249 68.025 82.5999 68.025H82.5249C82.3749 68.025 82.2249 68.025 82.0999 68.075C79.6749 68.2 77.4499 67.425 75.7749 66C78.3499 63.7 79.8249 60.25 79.5249 56.5C79.3499 54.475 78.6499 52.625 77.5999 51.05C78.5499 50.575 79.6499 50.275 80.7749 50.175C85.6749 49.75 90.0499 53.4 90.4749 58.35Z" fill="#CDC9CD"/>
<path d="M95.4751 81.475C95.2751 83.9 93.7251 86 91.1251 87.425C88.6251 88.8 85.4751 89.45 82.3501 89.375C84.1501 87.75 85.2001 85.725 85.4001 83.575C85.6501 80.475 84.1751 77.5 81.2251 75.125C79.5501 73.8 77.6001 72.75 75.4751 71.975C81.0001 70.375 87.9501 71.45 92.2251 74.9C94.5251 76.75 95.7001 79.075 95.4751 81.475Z" fill="#CDC9CD"/>
<rect x="1" y="0.5" width="139" height="139" rx="69.5" stroke="#E1E2E9"/>
</svg>
