<svg width="24" height="24" viewBox="0 0 24 24" fill="none" xmlns="http://www.w3.org/2000/svg">
<path d="M16.2508 22L16.2508 9.75L22.0508 9.75L22.0508 16.19C22.0508 19.83 19.8808 22 16.2508 22Z" fill="#A3ADC2"/>
<path d="M7.75005 2L7.75005 14.25L2.05005 14.25L2.05005 7.81C2.05005 4.17 4.18264 2 7.75005 2Z" fill="#A3ADC2"/>
<path d="M7.75 22C4.18 21.95 2.05 19.79 2.05 16.19L2.05 9.75L7.75 9.75L7.75 22Z" fill="#A3ADC2"/>
<path d="M16.25 2C19.8826 2.05 22.05 4.21 22.05 7.81L22.05 14.25L16.25 14.25L16.25 2Z" fill="#A3ADC2"/>
<path d="M14.75 22L14.75 2L9.25 2L9.25 22L14.75 22Z" fill="#A3ADC2"/>
</svg>
