<svg width="18" height="18" viewBox="0 0 18 18" fill="none" xmlns="http://www.w3.org/2000/svg">
<path fill-rule="evenodd" clip-rule="evenodd" d="M2.25 5.25C2.25 4.836 2.586 4.5 3 4.5C3.414 4.5 3.75 4.836 3.75 5.25C3.75 5.664 3.414 6 3 6C2.586 6 2.25 5.664 2.25 5.25ZM2.25 9C2.25 8.586 2.586 8.25 3 8.25C3.414 8.25 3.75 8.586 3.75 9C3.75 9.414 3.414 9.75 3 9.75C2.586 9.75 2.25 9.414 2.25 9ZM3 12C2.586 12 2.25 12.336 2.25 12.75C2.25 13.164 2.586 13.5 3 13.5C3.414 13.5 3.75 13.164 3.75 12.75C3.75 12.336 3.414 12 3 12ZM5.95163 8.25H15.0484C15.4346 8.25 15.7504 8.56575 15.7504 8.952V9.048C15.7504 9.43425 15.4346 9.75 15.0484 9.75H5.95163C5.56538 9.75 5.25038 9.43425 5.25038 9.048V8.952C5.25038 8.56575 5.56538 8.25 5.95163 8.25ZM15.0484 12H5.95163C5.56538 12 5.25038 12.3158 5.25038 12.702V12.798C5.25038 13.1842 5.56538 13.5 5.95163 13.5H15.0484C15.4346 13.5 15.7504 13.1842 15.7504 12.798V12.702C15.7504 12.3158 15.4346 12 15.0484 12ZM5.95163 4.5H15.0484C15.4346 4.5 15.7504 4.81575 15.7504 5.202V5.298C15.7504 5.68425 15.4346 6 15.0484 6H5.95163C5.56538 6 5.25038 5.68425 5.25038 5.298V5.202C5.25038 4.81575 5.56538 4.5 5.95163 4.5Z" fill="#666E7D"/>
</svg>
