<svg width="32" height="32" viewBox="0 0 32 32" fill="none" xmlns="http://www.w3.org/2000/svg">
<g opacity="0.5">
<path d="M17.5305 27.499C18.1471 23.3573 16.8602 20.0841 16.1374 18.6431C15.9248 18.2192 15.3569 18.1332 15.0295 18.4761C13.9184 19.6413 11.7356 22.3923 11.1191 26.534C10.7114 29.2726 11.9431 31.7275 13.5871 31.9753C15.4081 32.2491 17.1228 30.2376 17.5305 27.499Z" fill="#FFFAFF"/>
<path d="M9.70662 6.27916C10.8917 10.2937 13.4355 12.7108 14.6977 13.7085C15.0691 14.0019 15.6195 13.8376 15.7712 13.3877C16.2872 11.8586 17.1066 8.43674 15.921 4.42281C15.1372 1.76837 12.9882 0.0685065 11.3947 0.544493C9.62947 1.07199 8.92286 3.62471 9.70662 6.27916Z" fill="#FFFAFF"/>
<path d="M4.44643 15.5432C8.39116 16.8838 11.8212 16.1868 13.3595 15.7252C13.812 15.5895 13.9961 15.0418 13.718 14.6578C12.7735 13.3524 10.4663 10.7064 6.52155 9.36584C3.91355 8.47972 1.29388 9.26608 0.76165 10.8499C0.172371 12.6045 1.83843 14.6571 4.44708 15.5432H4.44643Z" fill="#FFFAFF"/>
<path d="M8.2382 24.6183C11.7849 22.4249 13.4458 19.3271 14.0765 17.8424C14.2619 17.4055 13.9611 16.9132 13.4898 16.8826C11.888 16.7783 8.38989 16.8708 4.8432 19.0643C2.49775 20.5144 1.42356 23.043 2.29484 24.4677C3.25947 26.045 5.8934 26.0691 8.23885 24.619L8.2382 24.6183Z" fill="#FFFAFF"/>
<path d="M20.2767 5.24956C17.6843 8.52604 17.1708 12.0079 17.0807 13.6197C17.0541 14.0938 17.5034 14.4537 17.9572 14.3213C19.4988 13.8708 22.7563 12.5863 25.3494 9.30979C27.0635 7.14307 27.2177 4.398 25.9173 3.35669C24.4768 2.20389 21.9914 3.08284 20.2773 5.24956H20.2767Z" fill="#FFFAFF"/>
<path d="M26.9155 12.4089C22.7543 12.54 19.782 14.3983 18.5016 15.3717C18.125 15.658 18.1425 16.2357 18.5366 16.4978C19.8753 17.3892 22.9565 19.0571 27.1184 18.926C29.8704 18.8393 32.0512 17.1818 31.9993 15.5106C31.9416 13.6595 29.6675 12.3222 26.9155 12.4089Z" fill="#FFFAFF"/>
<path d="M25.7511 22.1582C22.9927 19.0213 19.6729 17.9082 18.1106 17.5392C17.651 17.4303 17.2205 17.813 17.2717 18.2858C17.4448 19.8911 18.1372 23.341 20.8956 26.478C22.7192 28.5521 25.3803 29.1819 26.6257 28.0741C28.0052 26.8477 27.5754 24.233 25.7518 22.1589L25.7511 22.1582Z" fill="#FFFAFF"/>
</g>
<path d="M14.0181 15.6248C14.0181 14.9552 14.5743 14.4114 15.2595 14.4114H17.4494C17.4546 14.4114 17.4591 14.412 17.4656 14.412V14.5796C17.4656 14.5796 17.4708 14.8143 17.2782 14.9852C17.0675 15.171 16.8458 15.173 16.8458 15.173H16.3214H15.2965C15.0417 15.173 14.8355 15.3751 14.8355 15.6242C14.8355 15.8732 15.0417 16.0741 15.2965 16.0741H16.5035C16.5035 16.0741 16.6397 16.0884 16.733 16.1523C16.8387 16.2247 16.8782 16.316 16.8782 16.4431C16.8782 16.6094 16.794 16.7483 16.6287 16.8135C16.5761 16.8337 16.475 16.8363 16.475 16.8363H15.2602C14.5749 16.8363 14.0187 16.2932 14.0187 15.6235L14.0181 15.6248Z" fill="#FFF200"/>
<path d="M16.5417 17.6644H14.3525C14.3473 17.6644 14.0835 17.6644 14.0776 17.6644V17.5092C14.0776 17.5092 14.075 17.1904 14.3 17.0247C14.4873 16.8865 15.0196 16.9028 15.0196 16.9028H15.4798L16.5054 16.9022C16.7608 16.9022 16.967 16.7007 16.967 16.4516C16.967 16.2025 16.7608 16.0004 16.5054 16.0004H15.2983C15.2983 16.0004 15.1615 15.9867 15.0682 15.9228C14.9625 15.8498 14.923 15.7585 14.923 15.6313C14.923 15.4657 15.0073 15.3262 15.1732 15.2616C15.2251 15.2408 15.3275 15.2382 15.3275 15.2382H16.5411C17.2276 15.2382 17.7832 15.7813 17.7832 16.4516C17.7832 17.1219 17.2276 17.6644 16.5411 17.6644H16.5417Z" fill="#FFF200"/>
<path d="M12.8026 27.2037C15.0047 23.6494 15.1175 20.1317 15.0235 18.5198C14.9957 18.0458 14.5082 17.74 14.0732 17.9239C12.5932 18.5492 9.50286 20.2008 7.30133 23.755C5.84531 26.105 6.00478 28.8501 7.41607 29.7342C8.97841 30.7136 11.3472 29.5536 12.8032 27.2037H12.8026Z" fill="#F354DD"/>
<path d="M14.0072 4.60342C13.5087 8.76081 14.8869 11.9962 15.6512 13.4163C15.8762 13.8343 16.446 13.9034 16.763 13.5513C17.8404 12.3548 19.9447 9.54195 20.4433 5.38456C20.7732 2.63558 19.4728 0.216519 17.8223 0.0163439C15.9942 -0.205349 14.3372 1.85443 14.0072 4.60342Z" fill="#FFCF3F"/>
<path d="M5.52069 11.0019C8.611 13.8089 12.0332 14.5405 13.6273 14.7315C14.0967 14.7876 14.4811 14.3592 14.378 13.8956C14.0273 12.3203 12.9551 8.96947 9.86541 6.16311C7.82206 4.30741 5.10774 3.98139 3.99336 5.22222C2.7597 6.59671 3.47734 9.14617 5.52069 11.0019Z" fill="#FB9902"/>
<path d="M5.41371 20.8457C9.53477 20.251 12.2834 18.0719 13.4484 16.9615C13.7913 16.6348 13.7096 16.063 13.2896 15.8465C11.8608 15.1103 8.61423 13.7965 4.49316 14.3918C1.76782 14.785 -0.217184 16.6759 0.0187872 18.3308C0.280041 20.1636 2.68837 21.2388 5.41371 20.8457Z" fill="#FF5C35"/>
<path d="M24.1138 7.88446C20.44 9.85491 18.5931 12.8445 17.8735 14.2881C17.6615 14.7126 17.9319 15.2225 18.4006 15.2825C19.9934 15.4852 23.4901 15.6091 27.1639 13.6387C29.593 12.3359 30.8195 9.87838 30.0371 8.40283C29.171 6.76882 26.5429 6.58234 24.1131 7.88511L24.1138 7.88446Z" fill="#83C9E5"/>
<path d="M27.3771 17.1075C23.507 15.5642 20.0452 16.0812 18.4855 16.4627C18.0265 16.5748 17.8151 17.1121 18.0725 17.5098C18.949 18.8628 21.1174 21.6249 24.9876 23.1682C27.547 24.1887 30.2036 23.5399 30.8162 21.9854C31.495 20.2641 29.9365 18.1273 27.3771 17.1069V17.1075Z" fill="#4285F4"/>
<path d="M22.4568 25.5885C21.1655 21.6072 18.5588 19.2592 17.2707 18.2955C16.8914 18.0119 16.3456 18.1912 16.2055 18.645C15.7304 20.1871 15.0024 23.6298 16.2937 27.6112C17.1475 30.2434 19.3412 31.8853 20.9211 31.3662C22.6714 30.7918 23.3106 28.2208 22.4562 25.5885H22.4568Z" fill="#A54F8C"/>
</svg>
