<svg width="17" height="16" viewBox="0 0 17 16" fill="none" xmlns="http://www.w3.org/2000/svg">
<path d="M8.0034 0.419922C9.86662 0.419922 11.3862 1.91346 11.3862 3.75223V7.34723L6.80453 7.34723C6.47618 7.34723 6.21655 7.60241 6.21655 7.92513C6.21655 8.24035 6.47618 8.50303 6.80453 8.50303L11.3862 8.50303L11.3862 12.0905C11.3862 13.9293 9.86661 15.4303 7.98813 15.4303H4.26934C2.39849 15.4303 0.878906 13.9368 0.878906 12.098L0.878906 3.75974C0.878906 1.91346 2.40613 0.419922 4.27698 0.419922L8.0034 0.419922ZM13.2927 5.33598C13.5178 5.10332 13.8856 5.10332 14.1107 5.32848L16.3023 7.51249C16.4148 7.62507 16.4749 7.76767 16.4749 7.92528C16.4749 8.07538 16.4148 8.22549 16.3023 8.33056L14.1107 10.5146C13.9982 10.6272 13.8481 10.6872 13.7055 10.6872C13.5554 10.6872 13.4053 10.6272 13.2927 10.5146C13.0675 10.2894 13.0675 9.92167 13.2927 9.69651L14.4935 8.50318H11.3864V7.34738L14.4935 7.34738L13.2927 6.15405C13.0675 5.92889 13.0675 5.56114 13.2927 5.33598Z" fill="white"/>
</svg>
