<svg width="24" height="24" viewBox="0 0 24 24" fill="none" xmlns="http://www.w3.org/2000/svg">
<path d="M19.3 7.91949V13.0695C19.3 16.1495 17.54 17.4695 14.9 17.4695H6.10995C5.65995 17.4695 5.22996 17.4295 4.82996 17.3395C4.57996 17.2995 4.33996 17.2295 4.11996 17.1495C2.61996 16.5895 1.70996 15.2895 1.70996 13.0695V7.91949C1.70996 4.83949 3.46995 3.51953 6.10995 3.51953H14.9C17.14 3.51953 18.75 4.46953 19.18 6.63953C19.25 7.03953 19.3 7.44949 19.3 7.91949Z" stroke="#666466" stroke-width="1.5" stroke-miterlimit="10" stroke-linecap="round" stroke-linejoin="round"/>
<path d="M7.99902 12.2493C7.99902 13.2193 8.74904 13.9993 9.66904 13.9993H11.549C12.349 13.9993 12.999 13.3193 12.999 12.4693C12.999 11.5593 12.599 11.2293 12.009 11.0193L8.99902 9.96925C8.40902 9.75925 8.00903 9.43926 8.00903 8.51926C8.00903 7.67926 8.65901 6.98926 9.45901 6.98926H11.339C12.259 6.98926 13.009 7.76926 13.009 8.73926" stroke="#666466" stroke-width="1.5" stroke-linecap="round" stroke-linejoin="round"/>
<path d="M10.499 6V15" stroke="#666466" stroke-width="1.5" stroke-linecap="round" stroke-linejoin="round"/>
<path d="M22.3011 10.9196V16.0696C22.3011 19.1496 20.5411 20.4696 17.9011 20.4696H9.11105C8.37105 20.4696 7.70106 20.3697 7.12106 20.1497C5.93106 19.7097 5.12105 18.7997 4.83105 17.3397C5.23105 17.4297 5.66105 17.4696 6.11105 17.4696H14.9011C17.5411 17.4696 19.3011 16.1496 19.3011 13.0696V7.91962C19.3011 7.44962 19.2611 7.02965 19.1811 6.63965C21.0811 7.03965 22.3011 8.37962 22.3011 10.9196Z" stroke="#666466" stroke-width="1.5" stroke-miterlimit="10" stroke-linecap="round" stroke-linejoin="round"/>
</svg>
