<svg width="24" height="24" viewBox="0 0 24 24" fill="none" xmlns="http://www.w3.org/2000/svg">
<path fill-rule="evenodd" clip-rule="evenodd" d="M14.8909 3.51953C17.1309 3.51953 18.7409 4.46953 19.1709 6.63953C19.2609 7.02953 19.3009 7.44953 19.3009 7.91953V13.0695C19.3009 16.1495 17.5409 17.4695 14.9009 17.4695H6.11094C5.66094 17.4695 5.23094 17.4295 4.83094 17.3395C4.58094 17.2995 4.34094 17.2295 4.12094 17.1495C2.62094 16.5895 1.71094 15.2895 1.71094 13.0695V7.91953C1.71094 4.83953 3.47094 3.51953 6.11094 3.51953H14.8909ZM13.5 12.2295C13.5 10.7595 12.64 10.2895 12 10.0695L11 9.71951V7.49951H11.08C11.59 7.49951 12 7.94951 12 8.49951C12 8.90951 12.34 9.24951 12.75 9.24951C13.16 9.24951 13.5 8.90951 13.5 8.49951C13.5 7.11951 12.41 5.99951 11.08 5.99951H11V5.74951C11 5.33951 10.66 4.99951 10.25 4.99951C9.84 4.99951 9.5 5.33951 9.5 5.74951V5.98951H9.2C7.99 5.98951 7 7.01951 7 8.26951C7 9.73951 7.86 10.2095 8.5 10.4295L9.5 10.7795V12.9995H9.42C8.91 12.9995 8.5 12.5495 8.5 11.9995C8.5 11.5895 8.16 11.2495 7.75 11.2495C7.34 11.2495 7 11.5895 7 12.0095C7 13.3895 8.09 14.5095 9.42 14.5095H9.5V14.7595C9.5 15.1695 9.84 15.5095 10.25 15.5095C10.66 15.5095 11 15.1695 11 14.7595V14.5095H11.3C12.51 14.5095 13.5 13.4795 13.5 12.2295ZM11.3 12.9996H11V11.2996L11.51 11.4796C11.85 11.5996 12 11.6796 12 12.2196C12 12.6496 11.69 12.9996 11.3 12.9996ZM8.5 8.27951C8.5 8.81951 8.65 8.89951 8.99 9.01951L9.5 9.19951V7.49951H9.2C8.82 7.49951 8.5 7.84951 8.5 8.27951Z" fill="#7C3367"/>
<path d="M22.3 10.9203V16.0703C22.3 19.1503 20.54 20.4803 17.89 20.4803H9.11001C8.36001 20.4803 7.69001 20.3703 7.11001 20.1503C6.64001 19.9803 6.23001 19.7303 5.90001 19.4103C5.72001 19.2403 5.86001 18.9703 6.11001 18.9703H14.89C18.59 18.9703 20.79 16.7703 20.79 13.0803V7.92028C20.79 7.68028 21.06 7.53028 21.23 7.71028C21.91 8.43028 22.3 9.48028 22.3 10.9203Z" fill="#7C3367"/>
</svg>
