<svg width="24" height="24" viewBox="0 0 24 24" fill="none" xmlns="http://www.w3.org/2000/svg">
<path d="M19.6472 7.66241C19.0192 8.29039 18.7052 8.60438 18.3758 8.66515C18.0464 8.72592 17.8302 8.50973 17.3978 8.07735L15.9227 6.60217C15.4903 6.16979 15.2741 5.9536 15.3349 5.62418C15.3956 5.29477 15.7096 4.98078 16.3376 4.3528L16.6776 4.01282C17.3056 3.38484 17.6196 3.07085 17.949 3.01008C18.2784 2.94931 18.4946 3.1655 18.9269 3.59788L20.4021 5.07307C20.8345 5.50545 21.0507 5.72164 20.9899 6.05105C20.9292 6.38046 20.6152 6.69445 19.9872 7.32243L19.6472 7.66241Z" fill="#999699"/>
<path d="M4.43109 20.866C3.6813 21.0044 3.3064 21.0735 3.11644 20.8836C2.92648 20.6936 2.99564 20.3187 3.13395 19.5689L3.46763 17.76C3.5276 17.435 3.55758 17.2724 3.64507 17.1151C3.73257 16.9578 3.8687 16.8217 4.14096 16.5494L12.4716 8.21882C13.0996 7.59084 13.4135 7.27684 13.743 7.21608C14.0724 7.15531 14.2886 7.3715 14.7209 7.80388L16.1961 9.27906C16.6285 9.71144 16.8447 9.92763 16.7839 10.257C16.7232 10.5865 16.4092 10.9004 15.7812 11.5284L7.45057 19.859C7.17831 20.1313 7.04218 20.2674 6.88487 20.3549C6.72755 20.4424 6.56502 20.4724 6.23995 20.5324L4.43109 20.866Z" fill="#999699"/>
</svg>
