<svg width="24" height="24" viewBox="0 0 24 24" fill="none" xmlns="http://www.w3.org/2000/svg">
<path d="M7.5 5C7.5 3.61614 8.61614 2.5 10 2.5H14C15.3839 2.5 16.5 3.61614 16.5 5C16.5 5.27386 16.2739 5.5 16 5.5H8C7.72614 5.5 7.5 5.27386 7.5 5Z" fill="#7C3367" stroke="#7C3367"/>
<path d="M16 15.25H15.5V15.75V19C15.5 20.3839 14.3839 21.5 13 21.5H11C9.61614 21.5 8.5 20.3839 8.5 19V15.75V15.25H8H7C6.86614 15.25 6.75 15.1339 6.75 15C6.75 14.8661 6.86614 14.75 7 14.75H17C17.1339 14.75 17.25 14.8661 17.25 15C17.25 15.1339 17.1339 15.25 17 15.25H16Z" fill="#7C3367" stroke="#7C3367"/>
<path d="M6 7.5H18C18.9229 7.5 19.5233 7.73039 19.8964 8.10355C20.2696 8.47671 20.5 9.07707 20.5 10V15C20.5 15.9229 20.2696 16.5233 19.8964 16.8964C19.5233 17.2696 18.9229 17.5 18 17.5H17.625C17.556 17.5 17.5 17.444 17.5 17.375C17.5 17.35 17.5088 17.3107 17.5573 17.2565C17.6084 17.1994 17.6901 17.1433 17.7883 17.1061C18.6366 16.7856 19.25 15.9623 19.25 15C19.25 13.7639 18.2361 12.75 17 12.75H7C5.76386 12.75 4.75 13.7639 4.75 15C4.75 15.9623 5.36344 16.7856 6.21167 17.1061C6.30991 17.1433 6.39162 17.1994 6.44271 17.2565C6.49121 17.3107 6.5 17.35 6.5 17.375C6.5 17.444 6.44404 17.5 6.375 17.5H6C5.07707 17.5 4.47671 17.2696 4.10355 16.8964C3.73039 16.5233 3.5 15.9229 3.5 15V10C3.5 9.07707 3.73039 8.47671 4.10355 8.10355C4.47671 7.73039 5.07707 7.5 6 7.5ZM7 12.25H10C10.6861 12.25 11.25 11.6861 11.25 11C11.25 10.3139 10.6861 9.75 10 9.75H7C6.31386 9.75 5.75 10.3139 5.75 11C5.75 11.6861 6.31386 12.25 7 12.25Z" fill="#7C3367" stroke="#7C3367"/>
</svg>
