<svg width="16" height="16" viewBox="0 0 16 16" fill="none" xmlns="http://www.w3.org/2000/svg">
<path d="M4.83337 4.66683H11.1667V3.3335C11.1667 2.00016 10.6667 1.3335 9.16671 1.3335H6.83337C5.33337 1.3335 4.83337 2.00016 4.83337 3.3335V4.66683Z" stroke="#666466" stroke-width="1.5" stroke-miterlimit="10" stroke-linecap="round" stroke-linejoin="round"/>
<path d="M10.6667 10V12.6667C10.6667 14 10 14.6667 8.66671 14.6667H7.33337C6.00004 14.6667 5.33337 14 5.33337 12.6667V10H10.6667Z" stroke="#666466" stroke-width="1.5" stroke-miterlimit="10" stroke-linecap="round" stroke-linejoin="round"/>
<path d="M14 6.6665V9.99984C14 11.3332 13.3333 11.9998 12 11.9998H10.6667V9.99984H5.33333V11.9998H4C2.66667 11.9998 2 11.3332 2 9.99984V6.6665C2 5.33317 2.66667 4.6665 4 4.6665H12C13.3333 4.6665 14 5.33317 14 6.6665Z" stroke="#666466" stroke-width="1.5" stroke-miterlimit="10" stroke-linecap="round" stroke-linejoin="round"/>
<path d="M11.3333 10H10.5266H4.66663" stroke="#292D32" stroke-width="1.5" stroke-miterlimit="10" stroke-linecap="round" stroke-linejoin="round"/>
<path d="M4.66663 7.3335H6.66663" stroke="#292D32" stroke-width="1.5" stroke-miterlimit="10" stroke-linecap="round" stroke-linejoin="round"/>
</svg>
