<svg width="14" height="16" viewBox="0 0 14 16" fill="none" xmlns="http://www.w3.org/2000/svg">
<path d="M5.18717 15.25C3.75662 14.8472 2.58995 14.0592 1.68717 12.8858C0.784397 11.7119 0.333008 10.3611 0.333008 8.83333C0.333008 8.04167 0.464952 7.28805 0.728841 6.5725C0.99273 5.8575 1.36773 5.20139 1.85384 4.60417C2.00662 4.4375 2.19412 4.35056 2.41634 4.34333C2.63856 4.33667 2.83995 4.42361 3.02051 4.60417C3.17329 4.75694 3.25329 4.94444 3.26051 5.16667C3.26717 5.38889 3.19412 5.59722 3.04134 5.79167C2.70801 6.22222 2.45106 6.69444 2.27051 7.20833C2.08995 7.72222 1.99967 8.26389 1.99967 8.83333C1.99967 9.95833 2.32967 10.9619 2.98967 11.8442C3.64912 12.7258 4.49967 13.3264 5.54134 13.6458C5.7219 13.7014 5.87134 13.8056 5.98967 13.9583C6.10745 14.1111 6.16634 14.2778 6.16634 14.4583C6.16634 14.7361 6.06912 14.955 5.87467 15.115C5.68023 15.2744 5.45106 15.3194 5.18717 15.25ZM8.81217 15.25C8.54829 15.3194 8.31912 15.2708 8.12467 15.1042C7.93023 14.9375 7.83301 14.7153 7.83301 14.4375C7.83301 14.2708 7.89217 14.1111 8.01051 13.9583C8.12829 13.8056 8.27745 13.7014 8.45801 13.6458C9.49967 13.3125 10.3502 12.7083 11.0097 11.8333C11.6697 10.9583 11.9997 9.95833 11.9997 8.83333C11.9997 7.44444 11.5136 6.26389 10.5413 5.29167C9.56912 4.31944 8.38856 3.83333 6.99967 3.83333H6.93717L7.27051 4.16667C7.42329 4.31944 7.49967 4.51389 7.49967 4.75C7.49967 4.98611 7.42329 5.18056 7.27051 5.33333C7.11773 5.48611 6.92329 5.5625 6.68717 5.5625C6.45106 5.5625 6.25662 5.48611 6.10384 5.33333L4.35384 3.58333C4.27051 3.5 4.21162 3.40972 4.17717 3.3125C4.14217 3.21528 4.12467 3.11111 4.12467 3C4.12467 2.88889 4.14217 2.78472 4.17717 2.6875C4.21162 2.59028 4.27051 2.5 4.35384 2.41667L6.10384 0.666667C6.25662 0.513889 6.45106 0.4375 6.68717 0.4375C6.92329 0.4375 7.11773 0.513889 7.27051 0.666667C7.42329 0.819445 7.49967 1.01389 7.49967 1.25C7.49967 1.48611 7.42329 1.68056 7.27051 1.83333L6.93717 2.16667H6.99967C8.86079 2.16667 10.4372 2.8125 11.7288 4.10417C13.0205 5.39583 13.6663 6.97222 13.6663 8.83333C13.6663 10.3472 13.215 11.6944 12.3122 12.875C11.4094 14.0556 10.2427 14.8472 8.81217 15.25Z" fill="#666466"/>
</svg>
