<svg width="21" height="20" viewBox="0 0 21 20" fill="none" xmlns="http://www.w3.org/2000/svg">
<path d="M18.1 7.22091C16.29 7.22091 15.55 5.94091 16.45 4.37091C16.97 3.46091 16.66 2.30091 15.75 1.78091L14.02 0.790913C13.23 0.320913 12.21 0.600913 11.74 1.39091L11.63 1.58091C10.73 3.15091 9.25 3.15091 8.34 1.58091L8.23 1.39091C8.1222 1.20189 7.97789 1.0362 7.80545 0.903478C7.63302 0.770754 7.43591 0.673649 7.2256 0.617814C7.01529 0.561979 6.79597 0.548529 6.58041 0.578246C6.36486 0.607963 6.15736 0.680255 5.97 0.790913L4.24 1.78091C3.33 2.30091 3.02 3.47091 3.54 4.38091C4.45 5.94091 3.71 7.22091 1.9 7.22091C0.86 7.22091 0 8.07091 0 9.12091V10.8809C0 11.9209 0.85 12.7809 1.9 12.7809C3.71 12.7809 4.45 14.0609 3.54 15.6309C3.02 16.5409 3.33 17.7009 4.24 18.2209L5.97 19.2109C6.76 19.6809 7.78 19.4009 8.25 18.6109L8.36 18.4209C9.26 16.8509 10.74 16.8509 11.65 18.4209L11.76 18.6109C12.23 19.4009 13.25 19.6809 14.04 19.2109L15.77 18.2209C16.68 17.7009 16.99 16.5309 16.47 15.6309C15.56 14.0609 16.3 12.7809 18.11 12.7809C19.15 12.7809 20.01 11.9309 20.01 10.8809V9.12091C20.0048 8.6169 19.8015 8.13516 19.4442 7.77968C19.0868 7.42421 18.604 7.22351 18.1 7.22091ZM10 13.2509C8.21 13.2509 6.75 11.7909 6.75 10.0009C6.75 8.21091 8.21 6.75091 10 6.75091C11.79 6.75091 13.25 8.21091 13.25 10.0009C13.25 11.7909 11.79 13.2509 10 13.2509Z" fill="#7C3367"/>
</svg>
