<svg width="24" height="24" viewBox="0 0 24 24" fill="none" xmlns="http://www.w3.org/2000/svg">
<path d="M12 17.5C15.0375 17.5 17.5 15.0375 17.5 11.9999C17.5 8.96234 15.0375 6.5 12 6.5C8.96246 6.5 6.5 8.96234 6.5 11.9999C6.5 15.0375 8.96246 17.5 12 17.5Z" stroke="#666466" stroke-width="1.5" stroke-linecap="round" stroke-linejoin="round"/>
<path d="M1.5 12.9323V11.0677C1.5 9.96586 2.40053 9.05474 3.51295 9.05474C5.43054 9.05474 6.21453 7.69865 5.25044 6.03532C4.69952 5.08182 5.02795 3.84227 5.99205 3.29136L7.82489 2.24251C8.66185 1.74457 9.74248 2.04121 10.2404 2.87818L10.357 3.07947C11.3105 4.7428 12.8784 4.7428 13.8425 3.07947L13.9591 2.87818C14.457 2.04121 15.5377 1.74457 16.3746 2.24251L18.2075 3.29136C19.1715 3.84227 19.5 5.08182 18.9491 6.03532C17.985 7.69865 18.769 9.05474 20.6866 9.05474C21.7884 9.05474 22.6995 9.95527 22.6995 11.0677V12.9323C22.6995 14.0341 21.799 14.9453 20.6866 14.9453C18.769 14.9453 17.985 16.3013 18.9491 17.9647C19.5 18.9288 19.1715 20.1577 18.2075 20.7086L16.3746 21.7575C15.5377 22.2554 14.457 21.9588 13.9591 21.1218L13.8425 20.9205C12.889 19.2572 11.3211 19.2572 10.357 20.9205L10.2404 21.1218C9.74248 21.9588 8.66185 22.2554 7.82489 21.7575L5.99205 20.7086C5.02795 20.1577 4.69952 18.9182 5.25044 17.9647C6.21453 16.3013 5.43054 14.9453 3.51295 14.9453C2.40053 14.9453 1.5 14.0341 1.5 12.9323Z" stroke="#666466" stroke-width="1.5" stroke-miterlimit="10" stroke-linecap="round" stroke-linejoin="round"/>
<path d="M12 12C12.8285 12 13.5 11.3284 13.5 10.5C13.5 9.67155 12.8285 9 12 9C11.1716 9 10.5 9.67155 10.5 10.5C10.5 11.3284 11.1716 12 12 12Z" stroke="#666466" stroke-width="1.5" stroke-linecap="round" stroke-linejoin="round"/>
<path d="M15.3008 16.2998C15.3008 14.9194 13.8464 13.7998 12.0508 13.7998C10.2552 13.7998 8.80078 14.9194 8.80078 16.2998" stroke="#666466" stroke-width="1.5" stroke-linecap="round" stroke-linejoin="round"/>
</svg>
