<svg width="14" height="10" viewBox="0 0 14 10" fill="none" xmlns="http://www.w3.org/2000/svg">
<path fill-rule="evenodd" clip-rule="evenodd" d="M0.25 1.25C0.25 0.836 0.586 0.5 1 0.5C1.414 0.5 1.75 0.836 1.75 1.25C1.75 1.664 1.414 2 1 2C0.586 2 0.25 1.664 0.25 1.25ZM0.25 5C0.25 4.586 0.586 4.25 1 4.25C1.414 4.25 1.75 4.586 1.75 5C1.75 5.414 1.414 5.75 1 5.75C0.586 5.75 0.25 5.414 0.25 5ZM1 8C0.586 8 0.25 8.336 0.25 8.75C0.25 9.164 0.586 9.5 1 9.5C1.414 9.5 1.75 9.164 1.75 8.75C1.75 8.336 1.414 8 1 8ZM3.95163 4.25H13.0484C13.4346 4.25 13.7504 4.56575 13.7504 4.952V5.048C13.7504 5.43425 13.4346 5.75 13.0484 5.75H3.95163C3.56538 5.75 3.25038 5.43425 3.25038 5.048V4.952C3.25038 4.56575 3.56538 4.25 3.95163 4.25ZM13.0484 8H3.95163C3.56538 8 3.25038 8.31575 3.25038 8.702V8.798C3.25038 9.18425 3.56538 9.5 3.95163 9.5H13.0484C13.4346 9.5 13.7504 9.18425 13.7504 8.798V8.702C13.7504 8.31575 13.4346 8 13.0484 8ZM3.95163 0.5H13.0484C13.4346 0.5 13.7504 0.81575 13.7504 1.202V1.298C13.7504 1.68425 13.4346 2 13.0484 2H3.95163C3.56538 2 3.25038 1.68425 3.25038 1.298V1.202C3.25038 0.81575 3.56538 0.5 3.95163 0.5Z" fill="#666E7D"/>
</svg>
