<svg width="20" height="20" viewBox="0 0 20 20" fill="none" xmlns="http://www.w3.org/2000/svg">
<mask id="mask0_2407_35378" style="mask-type:alpha" maskUnits="userSpaceOnUse" x="0" y="0" width="20" height="20">
<rect width="20" height="20" fill="#D9D9D9"/>
</mask>
<g mask="url(#mask0_2407_35378)">
<path d="M16.0834 13.75L13.4167 11.0833C13.5279 10.8472 13.6112 10.6078 13.6667 10.365C13.7223 10.1217 13.7501 9.86111 13.7501 9.58333C13.7501 8.54167 13.3856 7.65611 12.6567 6.92667C11.9273 6.19778 11.0417 5.83333 10.0001 5.83333C9.7223 5.83333 9.46175 5.86111 9.21841 5.91667C8.97564 5.97222 8.73619 6.05556 8.50008 6.16667L6.37508 4.04167C6.94453 3.80556 7.52786 3.62833 8.12508 3.51C8.7223 3.39222 9.3473 3.33333 10.0001 3.33333C11.9862 3.33333 13.7709 3.8575 15.3542 4.90583C16.9376 5.95472 18.1251 7.31945 18.9167 9C18.9584 9.06945 18.9862 9.15611 19.0001 9.26C19.014 9.36445 19.0209 9.47222 19.0209 9.58333C19.0209 9.69444 19.0106 9.80195 18.9901 9.90583C18.969 10.0103 18.9445 10.0972 18.9167 10.1667C18.5973 10.875 18.1981 11.5347 17.7192 12.1458C17.2398 12.7569 16.6945 13.2917 16.0834 13.75ZM15.9167 18.25L13.0001 15.375C12.514 15.5278 12.0245 15.6425 11.5317 15.7192C11.0384 15.7953 10.5279 15.8333 10.0001 15.8333C8.01397 15.8333 6.22925 15.3092 4.64591 14.2608C3.06258 13.2119 1.87508 11.8472 1.08341 10.1667C1.04175 10.0972 1.01397 10.0103 1.00008 9.90583C0.986193 9.80195 0.979248 9.69444 0.979248 9.58333C0.979248 9.47222 0.986193 9.36806 1.00008 9.27083C1.01397 9.17361 1.04175 9.09028 1.08341 9.02083C1.37508 8.39583 1.7223 7.81944 2.12508 7.29167C2.52786 6.76389 2.9723 6.27778 3.45841 5.83333L1.72925 4.08333C1.57647 3.93056 1.50008 3.73944 1.50008 3.51C1.50008 3.28111 1.58341 3.08333 1.75008 2.91667C1.90286 2.76389 2.0973 2.6875 2.33341 2.6875C2.56953 2.6875 2.76397 2.76389 2.91675 2.91667L17.0834 17.0833C17.2362 17.2361 17.3162 17.4272 17.3234 17.6567C17.3301 17.8856 17.2501 18.0833 17.0834 18.25C16.9306 18.4028 16.7362 18.4792 16.5001 18.4792C16.264 18.4792 16.0695 18.4028 15.9167 18.25ZM10.0001 13.3333C10.1529 13.3333 10.2951 13.3264 10.4267 13.3125C10.559 13.2986 10.7015 13.2708 10.8542 13.2292L6.35425 8.72917C6.31258 8.88195 6.2848 9.02444 6.27092 9.15667C6.25703 9.28833 6.25008 9.43056 6.25008 9.58333C6.25008 10.625 6.61453 11.5106 7.34341 12.24C8.07286 12.9689 8.95841 13.3333 10.0001 13.3333ZM12.2084 9.875L9.70841 7.375C10.5001 7.25 11.1459 7.47222 11.6459 8.04167C12.1459 8.61111 12.3334 9.22222 12.2084 9.875Z" fill="#666466"/>
</g>
</svg>
