<svg width="14" height="14" viewBox="0 0 14 14" fill="none" xmlns="http://www.w3.org/2000/svg">
<path d="M12.8725 4.52485L9.47498 1.12735C8.76248 0.414854 7.77998 0.0323536 6.77498 0.0848536L3.02498 0.264854C1.52498 0.332354 0.332481 1.52485 0.257481 3.01735L0.0774814 6.76735C0.0324814 7.77235 0.407481 8.75485 1.11998 9.46735L4.51748 12.8649C5.91248 14.2599 8.17748 14.2599 9.57998 12.8649L12.8725 9.57235C14.275 8.18485 14.275 5.91985 12.8725 4.52485ZM5.12498 7.28485C3.93248 7.28485 2.96498 6.31735 2.96498 5.12485C2.96498 3.93235 3.93248 2.96485 5.12498 2.96485C6.31748 2.96485 7.28498 3.93235 7.28498 5.12485C7.28498 6.31735 6.31748 7.28485 5.12498 7.28485Z" fill="#7C3367"/>
</svg>
