<svg width="14" height="8" viewBox="0 0 14 8" fill="none" xmlns="http://www.w3.org/2000/svg">
<path fill-rule="evenodd" clip-rule="evenodd" d="M7.54879 1.60777L13.0939 0L11.7137 5.6061L9.99195 3.9532L7.21461 6.84627C7.12033 6.94448 6.99007 7 6.85392 7C6.71777 7 6.58751 6.94448 6.49322 6.84627L4.45392 4.72199L1.45461 7.84627C1.26337 8.04547 0.946858 8.05193 0.747653 7.86069C0.548447 7.66946 0.541987 7.35294 0.733225 7.15373L4.09322 3.65373C4.18751 3.55552 4.31777 3.5 4.45392 3.5C4.59007 3.5 4.72033 3.55552 4.81461 3.65373L6.85392 5.77801L9.27057 3.26067L7.54879 1.60777Z" fill="#50CD89"/>
</svg>
