<svg width="24" height="24" viewBox="0 0 24 24" fill="none" xmlns="http://www.w3.org/2000/svg">
<path fill-rule="evenodd" clip-rule="evenodd" d="M7.125 5.625V6.375H4.125C3.50368 6.375 3 6.87868 3 7.5C3 8.12132 3.50368 8.625 4.125 8.625H5.27083L5.84256 18.9164C5.93088 20.5062 7.24574 21.75 8.83795 21.75H15.162C16.7542 21.75 18.0691 20.5062 18.1574 18.9164L18.7292 8.625H19.875C20.4963 8.625 21 8.12132 21 7.5C21 6.87868 20.4963 6.375 19.875 6.375H16.875V5.625C16.875 3.76104 15.364 2.25 13.5 2.25H10.5C8.63604 2.25 7.125 3.76104 7.125 5.625ZM10.5 4.5C9.87868 4.5 9.375 5.00368 9.375 5.625V6.375H14.625V5.625C14.625 5.00368 14.1213 4.5 13.5 4.5H10.5ZM10.875 11.625C10.875 11.0037 10.3713 10.5 9.75 10.5C9.12868 10.5 8.625 11.0037 8.625 11.625V18.375C8.625 18.9963 9.12868 19.5 9.75 19.5C10.3713 19.5 10.875 18.9963 10.875 18.375V11.625ZM15.375 11.625C15.375 11.0037 14.8713 10.5 14.25 10.5C13.6287 10.5 13.125 11.0037 13.125 11.625V18.375C13.125 18.9963 13.6287 19.5 14.25 19.5C14.8713 19.5 15.375 18.9963 15.375 18.375V11.625Z" fill="#FF316A"/>
</svg>
