<svg width="18" height="14" viewBox="0 0 18 14" fill="none" xmlns="http://www.w3.org/2000/svg">
<path d="M16.7503 6.03346C17.0753 6.03346 17.3337 5.77513 17.3337 5.45013V4.67513C17.3337 1.25846 16.292 0.216797 12.8753 0.216797H5.12533C1.70866 0.216797 0.666992 1.25846 0.666992 4.67513V5.0668C0.666992 5.3918 0.925326 5.65013 1.25033 5.65013C2.00033 5.65013 2.60866 6.25846 2.60866 7.00846C2.60866 7.75846 2.00033 8.35846 1.25033 8.35846C0.925326 8.35846 0.666992 8.6168 0.666992 8.9418V9.33346C0.666992 12.7501 1.70866 13.7918 5.12533 13.7918H12.8753C16.292 13.7918 17.3337 12.7501 17.3337 9.33346C17.3337 9.00846 17.0753 8.75013 16.7503 8.75013C16.0003 8.75013 15.392 8.1418 15.392 7.3918C15.392 6.6418 16.0003 6.03346 16.7503 6.03346ZM6.50033 4.40013C6.95866 4.40013 7.33366 4.77513 7.33366 5.23346C7.33366 5.6918 6.96699 6.0668 6.50033 6.0668C6.04199 6.0668 5.66699 5.6918 5.66699 5.23346C5.66699 4.77513 6.03366 4.40013 6.50033 4.40013ZM11.5003 10.2335C11.0337 10.2335 10.6587 9.85846 10.6587 9.40013C10.6587 8.9418 11.0337 8.5668 11.492 8.5668C11.9503 8.5668 12.3253 8.9418 12.3253 9.40013C12.3253 9.85846 11.967 10.2335 11.5003 10.2335ZM12.2503 4.90013L6.64199 10.5085C6.51699 10.6335 6.35866 10.6918 6.20033 10.6918C6.04199 10.6918 5.88366 10.6335 5.75866 10.5085C5.51699 10.2668 5.51699 9.8668 5.75866 9.62513L11.367 4.0168C11.6087 3.77513 12.0087 3.77513 12.2503 4.0168C12.492 4.25846 12.492 4.65846 12.2503 4.90013Z" fill="#B2AFB2"/>
</svg>
