<svg width="32" height="32" viewBox="0 0 32 32" fill="none" xmlns="http://www.w3.org/2000/svg">
<path d="M17.334 14.8667H9.33398" stroke="#7C3367" stroke-width="1.5" stroke-linecap="round" stroke-linejoin="round"/>
<path d="M2.66602 14.8666V8.70662C2.66602 5.98662 4.86602 3.78662 7.58602 3.78662H15.0793C17.7993 3.78662 19.9993 5.47995 19.9993 8.19995" stroke="#7C3367" stroke-width="1.5" stroke-linecap="round" stroke-linejoin="round"/>
<path d="M23.306 16.2668C22.6393 16.9068 22.3194 17.8935 22.586 18.9068C22.9194 20.1468 24.146 20.9335 25.426 20.9335H26.666V22.8669C26.666 25.8135 24.2793 28.2002 21.3327 28.2002H7.99935C5.05268 28.2002 2.66602 25.8135 2.66602 22.8669V13.5335C2.66602 10.5869 5.05268 8.2002 7.99935 8.2002H21.3327C24.266 8.2002 26.666 10.6002 26.666 13.5335V15.4668H25.226C24.4793 15.4668 23.7993 15.7602 23.306 16.2668Z" stroke="#7C3367" stroke-width="1.5" stroke-linecap="round" stroke-linejoin="round"/>
<path d="M29.333 16.8268V19.5735C29.333 20.3202 28.7196 20.9335 27.9596 20.9335H25.3863C23.9463 20.9335 22.6263 19.8802 22.5063 18.4402C22.4263 17.6002 22.7463 16.8135 23.3063 16.2668C23.7996 15.7602 24.4796 15.4668 25.2263 15.4668H27.9596C28.7196 15.4668 29.333 16.0802 29.333 16.8268Z" stroke="#7C3367" stroke-width="1.5" stroke-linecap="round" stroke-linejoin="round"/>
</svg>
