<svg width="24" height="24" viewBox="0 0 24 24" fill="none" xmlns="http://www.w3.org/2000/svg">
<rect width="24" height="24" rx="12" fill="#FBBF24"/>
<path d="M8.63365 15H15.3694C15.8402 15 16.1437 14.5882 15.9307 14.24L12.5628 9.28896C12.3306 8.90368 11.666 8.90368 11.4338 9.28896L8.06594 14.24C7.85934 14.5874 8.16285 15 8.63365 15ZM12.5299 13.8487C12.5299 14.1058 12.3041 14.3038 11.9814 14.3038C11.6587 14.3038 11.4329 14.1058 11.4329 13.8487V13.8381C11.4329 13.581 11.6587 13.383 11.9814 13.383C12.3041 13.383 12.5299 13.581 12.5299 13.8381V13.8487ZM11.6852 10.504H12.3178C12.4915 10.504 12.5948 10.6268 12.5756 10.7823L12.2977 12.7945C12.2785 12.9393 12.1624 13.0296 12.0006 13.0296C11.8397 13.0296 11.7227 12.9386 11.7035 12.7945L11.4256 10.7823C11.4082 10.6268 11.5115 10.504 11.6852 10.504Z" fill="white"/>
</svg>
