<svg width="22" height="20" viewBox="0 0 22 20" fill="none" xmlns="http://www.w3.org/2000/svg">
<path d="M19.0402 4.82018L13.2802 0.790182C11.7102 -0.309818 9.30023 -0.249818 7.79023 0.920182L2.78023 4.83018C1.78023 5.61018 0.990234 7.21018 0.990234 8.47018V15.3702C0.990234 17.9202 3.06023 20.0002 5.61023 20.0002H16.3902C18.9402 20.0002 21.0102 17.9302 21.0102 15.3802V8.60018C21.0102 7.25018 20.1402 5.59018 19.0402 4.82018ZM11.7502 16.0002C11.7502 16.4102 11.4102 16.7502 11.0002 16.7502C10.5902 16.7502 10.2502 16.4102 10.2502 16.0002V13.0002C10.2502 12.5902 10.5902 12.2502 11.0002 12.2502C11.4102 12.2502 11.7502 12.5902 11.7502 13.0002V16.0002Z" fill="#292D32"/>
</svg>
